<svg width="600" height="600" viewBox="0 0 600 600" fill="none" xmlns="http://www.w3.org/2000/svg">
<circle cx="300" cy="300" r="300" fill="#52D7AF"/>
<path fill-rule="evenodd" clip-rule="evenodd" d="M259 144.193V455.807C259 465.303 250.723 473 240.514 473H99.5553C89.3456 473 81.069 465.303 81.069 455.807V144.193C81.069 134.697 89.3456 127 99.5553 127H240.514C250.723 127 259 134.697 259 144.193ZM249.69 151.496V447.484C249.69 456.503 242.231 463.814 233.03 463.814H106.004C96.8034 463.814 89.3448 456.503 89.3448 447.484V231.106V205.08V194.363V151.496C89.3448 142.477 96.8034 135.165 106.004 135.165H117.978H221.241H233.03C242.231 135.165 249.69 142.477 249.69 151.496Z" fill="#012937"/>
<path fill-rule="evenodd" clip-rule="evenodd" d="M221.241 135.165H117.978C118.037 135.194 118.618 135.222 119.197 135.25C119.2 135.25 119.203 135.25 119.207 135.25C119.775 135.278 120.338 135.305 120.395 135.333C124.7 137.404 127.284 138.647 128.138 142.31C129.172 146.392 131.648 149.965 135.96 149.965H146.759H175.724H204.69C209.541 149.965 213.618 146.712 214.774 142.31C215.059 141.69 215.29 141.13 215.501 140.618C216.528 138.126 217.087 136.768 221.241 135.165Z" fill="#012937"/>
<path fill-rule="evenodd" clip-rule="evenodd" d="M249.69 447.484V151.496C249.69 142.477 242.231 135.165 233.03 135.165H221.241C217.087 136.768 216.528 138.126 215.501 140.618C215.29 141.13 215.059 141.69 214.774 142.31C213.618 146.712 209.541 149.965 204.69 149.965H175.724L89.3448 231.106V447.484C89.3448 456.503 96.8034 463.814 106.004 463.814H233.03C242.231 463.814 249.69 456.503 249.69 447.484ZM146.759 149.965H135.96L89.3448 194.363V205.08L146.759 149.965ZM119.197 135.25L117.978 135.165C118.037 135.194 118.618 135.222 119.197 135.25Z" fill="#68BBF8"/>
<path d="M175.724 149.965H146.759L89.3448 205.08V231.106L175.724 149.965Z" fill="#ADE0F9"/>
<path d="M106.004 135.165C96.8034 135.165 89.3448 142.477 89.3448 151.496V194.363L135.96 149.965C131.648 149.965 129.172 146.392 128.138 142.31C127.284 138.647 124.7 137.404 120.395 135.333L119.207 135.25L119.197 135.25C118.618 135.222 118.037 135.194 117.978 135.165H106.004Z" fill="#9CDAF7"/>
<rect x="79" y="205.59" width="3.10345" height="27.5575" fill="#012937"/>
<rect x="79" y="241.313" width="3.10345" height="27.5575" fill="#012937"/>
<rect x="155.552" y="137.206" width="20.6897" height="5.10324" rx="2.55162" fill="#35637D"/>
<rect x="139" y="137.206" width="13.4483" height="5.10324" rx="2.55162" fill="#35637D"/>
<mask id="path-7-inside-1_18_54" fill="white">
<ellipse cx="236.241" cy="149.454" rx="4.13793" ry="4.0826"/>
</mask>
<path d="M234.379 149.454C234.379 148.319 235.289 147.537 236.241 147.537V159.537C241.764 159.537 246.379 155.099 246.379 149.454H234.379ZM236.241 147.537C237.193 147.537 238.104 148.319 238.104 149.454H226.104C226.104 155.099 230.719 159.537 236.241 159.537V147.537ZM238.104 149.454C238.104 150.589 237.193 151.372 236.241 151.372V139.372C230.719 139.372 226.104 143.81 226.104 149.454H238.104ZM236.241 151.372C235.289 151.372 234.379 150.589 234.379 149.454H246.379C246.379 143.81 241.764 139.372 236.241 139.372V151.372Z" fill="#FCFDFD" mask="url(#path-7-inside-1_18_54)"/>
<mask id="path-9-inside-2_18_54" fill="white">
<ellipse cx="225.897" cy="149.454" rx="4.13793" ry="4.0826"/>
</mask>
<path d="M224.035 149.454C224.035 148.319 224.945 147.537 225.897 147.537V159.537C231.419 159.537 236.035 155.099 236.035 149.454H224.035ZM225.897 147.537C226.849 147.537 227.759 148.319 227.759 149.454H215.759C215.759 155.099 220.374 159.537 225.897 159.537V147.537ZM227.759 149.454C227.759 150.589 226.849 151.372 225.897 151.372V139.372C220.374 139.372 215.759 143.81 215.759 149.454H227.759ZM225.897 151.372C224.945 151.372 224.035 150.589 224.035 149.454H236.035C236.035 143.81 231.419 139.372 225.897 139.372V151.372Z" fill="#FCFDFD" mask="url(#path-9-inside-2_18_54)"/>
<path d="M139 337.764C139 345.938 145.484 352.563 153.483 352.563C155.305 352.563 157.049 352.22 158.655 351.592C167.489 350.213 172.034 350.437 179.345 352.78C181.339 353.943 183.631 354.605 186.069 354.605C193.782 354.605 200.034 347.979 200.034 339.805C200.034 335.848 198.569 332.254 196.182 329.599C195.573 329.226 194.85 328.546 194.072 327.675C192.253 325.641 190.13 322.567 188.457 319.951C187.705 318.777 187.044 317.695 186.541 316.841C182.853 311.875 177.063 308.676 170.552 308.676C164.041 308.676 158.25 311.875 154.562 316.841C151.914 320.27 150.273 322.057 147.798 324.148C142.625 326.407 139 331.653 139 337.764Z" fill="#FCFDFD"/>
<ellipse cx="14.6151" cy="11.3958" rx="14.6151" ry="11.3958" transform="matrix(-0.756845 0.653594 -0.663635 -0.748056 232.11 306.333)" fill="#FCFDFD"/>
<ellipse cx="14.5312" cy="11.4611" rx="14.5312" ry="11.4611" transform="matrix(-0.378918 0.92543 -0.928933 -0.370248 211.079 268.688)" fill="#FCFDFD"/>
<ellipse cx="15.0225" cy="11.4335" rx="15.0225" ry="11.4335" transform="matrix(0.163264 0.986582 -0.987273 0.159038 170.035 252.54)" fill="#FCFDFD"/>
<ellipse cx="14.9717" cy="11.1253" rx="14.9717" ry="11.1253" transform="matrix(0.579159 0.815214 -0.822478 0.568797 137.689 274.985)" fill="#FCFDFD"/>
<path d="M429.325 449.831C433.858 433.814 435.343 424.655 436.818 408.12C439.923 401.325 443.97 395.648 449.386 391.993C452.254 400.713 459.544 415.695 465.15 417.674C473.271 420.54 474.583 437.851 476.615 443.948C478.857 450.673 489.777 457.819 492.621 452.353C492.777 451.942 492.927 451.529 493.071 451.114C492.958 451.583 492.807 451.995 492.621 452.353C487.329 466.233 474.59 477.235 459.763 476.761C445.846 476.316 439.385 476.023 435.058 464.967C436.013 456.846 433.047 453.643 429.325 449.831Z" fill="#FF0000" fill-opacity="0.27"/>
<path d="M429.325 449.831C433.858 433.814 435.343 424.655 436.818 408.12C439.923 401.325 443.97 395.648 449.386 391.993C452.254 400.713 459.544 415.695 465.15 417.674C473.271 420.54 474.583 437.851 476.615 443.948C478.857 450.673 489.777 457.819 492.621 452.353C492.777 451.942 492.927 451.529 493.071 451.114C492.958 451.583 492.807 451.995 492.621 452.353C487.329 466.233 474.59 477.235 459.763 476.761C445.846 476.316 439.385 476.023 435.058 464.967C436.013 456.846 433.047 453.643 429.325 449.831Z" fill="#F9FCFB"/>
<path d="M491.91 414.33C488.116 398.16 482.568 388.12 465.631 387.578C459.148 387.371 453.81 389.007 449.386 391.993C452.254 400.713 459.544 415.695 465.15 417.674C473.271 420.54 474.583 437.851 476.615 443.948C478.857 450.673 489.777 457.819 492.621 452.353C492.777 451.942 492.927 451.529 493.071 451.114C494.345 447.421 495.093 443.547 495.218 439.649C495.342 435.75 495.705 430.5 491.91 414.33Z" fill="#E3B270"/>
<path fill-rule="evenodd" clip-rule="evenodd" d="M506.811 397.593L520.643 394.249C518.114 363.96 497.629 358.898 497.629 358.898C497.629 358.898 506.811 388.039 506.811 397.593Z" fill="#F9FCFB"/>
<path d="M490.472 414.79C490.472 414.79 491.917 425.358 492.377 427.688L493.779 440.109C516.04 426.81 521.92 409.535 520.643 394.249L506.811 397.593C506.962 411.719 496.385 412.401 490.472 414.79Z" fill="#E3B270"/>
<path fill-rule="evenodd" clip-rule="evenodd" d="M435.863 409.535C435.863 409.535 435.058 399.981 434.102 392.338C433.823 390.108 433.245 386.46 432.321 381.828C434.665 385.568 441.169 393.119 448.43 393.409C443.015 397.063 438.967 402.74 435.863 409.535Z" fill="#FCFDFD"/>
<path d="M426.806 333.102L418.816 336.924C425.795 353.537 430.077 370.582 432.321 381.828C434.665 385.568 441.169 393.119 448.43 393.409C452.855 390.423 458.193 388.787 464.675 388.994C449.299 371.3 438.224 357.71 426.806 333.102Z" fill="#E3B270"/>
<path d="M387.924 471.834C378.847 465.146 381.077 437.72 381.077 435.332C381.077 432.943 381.082 416.426 383.468 404.604C377.696 415.6 376.948 422.254 377.733 435.332C371.733 429.396 368.284 426.348 363.882 417.656L366.905 436.839C366.905 436.839 373.028 461.794 360.694 472.655L387.924 471.834Z" fill="black"/>
<path d="M297.481 405.714C295.682 412.662 294.844 416.539 293.659 423.389C292.704 428.166 293.198 433.44 294.615 436.839C284.583 437.72 278.528 443.083 278.373 452.529C278.218 461.981 283.73 470.049 293.182 470.204L299.563 470.703L305.944 471.201C306.934 471.217 311.812 472.397 316.589 474.504C315.156 471.097 310.364 457.492 317.542 451.247C321.65 447.672 324.588 445.543 330.032 446.428C314.148 438.235 315.709 401.654 316.112 386.128C306.557 389.472 300.347 393.293 297.481 405.714Z" fill="#FCFDFD"/>
<path d="M325.666 478.325C325.666 478.325 330.439 479.015 335.217 479.26C343.124 479.666 353.537 478.958 360.694 472.655C373.028 461.794 366.905 436.839 366.905 436.839L363.882 417.656C368.284 426.348 371.733 429.396 377.733 435.332C376.948 422.254 377.696 415.6 383.468 404.604C381.082 416.426 381.077 432.943 381.077 435.332C381.077 437.72 378.847 465.146 387.924 471.834C393.834 476.188 395.408 476.414 403.051 476.414C415.28 475.808 434.603 472.034 434.105 466.383C435.061 458.262 432.095 455.058 428.373 451.247C432.906 435.23 434.391 426.071 435.866 409.535C435.866 409.535 435.061 399.981 434.105 392.338C433.827 390.108 433.248 386.46 432.324 381.828C430.08 370.582 425.798 353.537 418.819 336.924C418.819 336.924 396.103 346.406 373.115 347.433C352.754 348.344 323.433 341.223 323.433 341.223C319.312 341.223 315.634 363.521 316.112 386.128C315.709 401.654 314.148 438.235 330.032 446.428C332.02 446.751 335.431 446.985 338.242 447.752C335.555 447.752 332.091 447.49 330.032 446.428C324.588 445.543 321.65 447.672 317.542 451.247C310.364 457.492 315.156 471.097 316.589 474.504C321.366 477.462 325.666 478.325 325.666 478.325Z" fill="#FCFDFD"/>
<path d="M323.433 341.223L323.905 339.28L323.672 339.223H323.433V341.223ZM325.666 478.325L325.272 480.286L325.326 480.297L325.38 480.305L325.666 478.325ZM458.811 478.177L458.747 480.175L458.747 480.175L458.811 478.177ZM492.863 428.644L494.851 428.419L494.842 428.337L494.826 428.256L492.863 428.644ZM310.306 441.499C311.033 442.331 312.296 442.416 313.128 441.689C313.96 440.963 314.045 439.699 313.318 438.867L310.306 441.499ZM293.659 423.389L295.62 423.781L295.626 423.755L295.63 423.73L293.659 423.389ZM316.112 386.128L318.111 386.18L318.112 386.132L318.111 386.085L316.112 386.128ZM297.481 405.714L299.417 406.215L299.424 406.189L299.43 406.163L297.481 405.714ZM278.373 452.529L280.372 452.562L278.373 452.529ZM293.182 470.204L293.337 468.21L293.276 468.206L293.214 468.205L293.182 470.204ZM305.944 471.201L305.788 473.195L305.85 473.2L305.911 473.201L305.944 471.201ZM428.373 451.247L426.449 450.702C426.254 451.391 426.442 452.132 426.942 452.644L428.373 451.247ZM458.479 444.947C459.569 445.13 460.6 444.396 460.783 443.306C460.966 442.217 460.232 441.186 459.142 441.003L458.479 444.947ZM366.905 436.839L364.929 437.151L364.942 437.234L364.962 437.316L366.905 436.839ZM434.105 392.338L436.09 392.09L434.105 392.338ZM373.115 347.433L373.204 349.431L373.115 347.433ZM363.882 417.656L365.667 416.753C365.222 415.875 364.204 415.451 363.268 415.753C362.331 416.056 361.754 416.995 361.907 417.968L363.882 417.656ZM377.733 435.332L376.326 436.753L380.042 440.43L379.729 435.212L377.733 435.332ZM383.468 404.604L385.429 404.999C385.626 404.024 385.076 403.052 384.138 402.719C383.2 402.386 382.16 402.793 381.698 403.674L383.468 404.604ZM338.242 447.752V449.752C339.244 449.752 340.091 449.011 340.224 448.017C340.357 447.024 339.735 446.086 338.768 445.822L338.242 447.752ZM294.615 436.839L294.79 438.832L294.858 438.826L294.926 438.815L294.615 436.839ZM317.542 451.247L318.854 452.756L318.854 452.756L317.542 451.247ZM426.809 333.102L428.623 332.26L427.772 330.425L425.946 331.298L426.809 333.102ZM434.105 466.383L432.119 466.149L432.095 466.353L432.113 466.558L434.105 466.383ZM498.115 359.854L498.595 357.912L495.137 357.058L496.207 360.455L498.115 359.854ZM297.51 453.002C297.772 451.929 297.113 450.847 296.04 450.586C294.967 450.324 293.885 450.983 293.624 452.056L297.51 453.002ZM299.563 470.703L299.407 472.697L299.407 472.697L299.563 470.703ZM335.217 479.26L335.114 481.257L335.217 479.26ZM333.135 461.333C333.743 460.411 333.488 459.17 332.566 458.562C331.644 457.954 330.403 458.209 329.795 459.131L333.135 461.333ZM409.942 458.544C409.307 457.641 408.059 457.423 407.156 458.059C406.252 458.694 406.035 459.941 406.67 460.845L409.942 458.544ZM452.796 457.626C452.973 456.536 452.232 455.509 451.142 455.332C450.052 455.155 449.025 455.896 448.848 456.986L452.796 457.626ZM432.324 381.828L430.363 382.22L432.324 381.828ZM448.433 393.409L449.552 395.066L448.433 393.409ZM507.297 398.548H505.297V398.559L505.297 398.57L507.297 398.548ZM521.13 395.204L519.137 395.371L521.13 395.204ZM492.118 452.529L490.228 451.877L492.118 452.529ZM491.668 453.769L489.8 453.056L489.8 453.056L491.668 453.769ZM295.63 423.73C296.805 416.935 297.632 413.112 299.417 406.215L295.545 405.213C293.733 412.212 292.883 416.142 291.689 423.048L295.63 423.73ZM315.451 384.24C310.61 385.934 306.338 387.837 302.917 391.061C299.454 394.324 297.03 398.775 295.532 405.264L299.43 406.163C300.798 400.232 302.912 396.562 305.66 393.973C308.448 391.345 312.059 389.665 316.772 388.015L315.451 384.24ZM293.214 468.205C289.107 468.137 285.923 466.374 283.744 463.614C281.536 460.816 280.301 456.907 280.372 452.562L276.373 452.496C276.289 457.603 277.733 462.454 280.605 466.092C283.506 469.768 287.805 472.116 293.149 472.204L293.214 468.205ZM429.601 452.826C431.818 451.101 433.55 449.411 435.013 448.113C436.513 446.782 437.819 445.774 439.439 445.054C442.672 443.617 447.625 443.123 458.479 444.947L459.142 441.003C448.157 439.156 442.191 439.454 437.814 441.399C435.63 442.37 433.958 443.701 432.358 445.121C430.72 446.574 429.228 448.049 427.145 449.668L429.601 452.826ZM389.11 470.223C387.364 468.937 385.964 466.474 384.94 463.069C383.932 459.718 383.375 455.75 383.091 451.826C382.52 443.913 383.077 436.759 383.077 435.332H379.077C379.077 436.292 378.519 444.046 379.102 452.114C379.395 456.181 379.983 460.474 381.109 464.221C382.22 467.913 383.945 471.387 386.737 473.444L389.11 470.223ZM366.905 436.839C364.962 437.316 364.962 437.315 364.962 437.315C364.962 437.315 364.962 437.315 364.962 437.315C364.962 437.315 364.962 437.315 364.962 437.316C364.963 437.318 364.963 437.321 364.964 437.325C364.967 437.334 364.97 437.349 364.975 437.37C364.985 437.412 365 437.476 365.019 437.562C365.058 437.735 365.115 437.995 365.184 438.332C365.321 439.007 365.506 439.991 365.691 441.209C366.062 443.649 366.43 447.002 366.424 450.671C366.414 458.142 364.86 466.322 359.373 471.154L362.016 474.156C368.862 468.127 370.413 458.4 370.424 450.677C370.43 446.75 370.038 443.186 369.646 440.608C369.45 439.316 369.252 438.266 369.103 437.533C369.029 437.167 368.966 436.88 368.921 436.682C368.899 436.583 368.881 436.506 368.868 436.452C368.862 436.425 368.857 436.404 368.853 436.39C368.852 436.382 368.85 436.376 368.849 436.372C368.849 436.369 368.848 436.367 368.848 436.366C368.848 436.365 368.847 436.364 368.847 436.364C368.847 436.363 368.847 436.363 366.905 436.839ZM318.111 386.085C317.875 374.888 318.669 363.786 320.021 355.521C320.7 351.375 321.506 348.028 322.356 345.763C322.785 344.619 323.185 343.863 323.511 343.431C323.882 342.94 323.872 343.223 323.433 343.223V339.223C321.964 339.223 320.937 340.203 320.32 341.02C319.658 341.895 319.098 343.059 318.611 344.358C317.627 346.98 316.77 350.621 316.074 354.875C314.677 363.41 313.871 374.76 314.112 386.17L318.111 386.085ZM435.866 409.535C437.859 409.367 437.859 409.367 437.859 409.367C437.859 409.367 437.859 409.367 437.859 409.367C437.859 409.367 437.859 409.366 437.859 409.365C437.859 409.364 437.859 409.362 437.858 409.36C437.858 409.355 437.857 409.348 437.857 409.339C437.855 409.32 437.853 409.292 437.85 409.256C437.843 409.184 437.834 409.076 437.822 408.938C437.798 408.66 437.763 408.255 437.718 407.746C437.627 406.727 437.496 405.289 437.335 403.612C437.013 400.261 436.571 395.939 436.09 392.09L432.121 392.586C432.595 396.38 433.033 400.657 433.353 403.994C433.513 405.661 433.643 407.089 433.733 408.101C433.778 408.606 433.813 409.008 433.837 409.282C433.849 409.42 433.858 409.525 433.864 409.596C433.867 409.632 433.869 409.659 433.871 409.677C433.872 409.686 433.872 409.692 433.873 409.697C433.873 409.699 433.873 409.701 433.873 409.702C433.873 409.702 433.873 409.703 433.873 409.703C433.873 409.703 433.873 409.703 433.873 409.703C433.873 409.703 433.873 409.703 435.866 409.535ZM315.536 476.204C318.075 477.776 320.483 478.79 322.258 479.412C323.147 479.723 323.883 479.938 324.405 480.077C324.666 480.146 324.874 480.197 325.021 480.231C325.094 480.248 325.152 480.261 325.195 480.27C325.216 480.274 325.233 480.278 325.246 480.281C325.252 480.282 325.258 480.283 325.262 480.284C325.264 480.285 325.266 480.285 325.268 480.285C325.269 480.285 325.27 480.286 325.27 480.286C325.271 480.286 325.271 480.286 325.271 480.286C325.272 480.286 325.272 480.286 325.666 478.325C326.059 476.364 326.06 476.364 326.06 476.365C326.06 476.365 326.061 476.365 326.061 476.365C326.061 476.365 326.062 476.365 326.062 476.365C326.063 476.365 326.063 476.365 326.063 476.365C326.063 476.365 326.063 476.365 326.061 476.365C326.057 476.364 326.05 476.362 326.038 476.36C326.015 476.355 325.976 476.346 325.923 476.334C325.816 476.309 325.65 476.269 325.434 476.211C325 476.096 324.363 475.91 323.58 475.636C322.011 475.087 319.88 474.189 317.642 472.803L315.536 476.204ZM317.396 472.674C314.911 471.577 312.41 470.727 310.401 470.147C309.396 469.857 308.5 469.63 307.778 469.473C307.116 469.329 306.447 469.209 305.977 469.201L305.911 473.201C305.89 473.201 305.963 473.202 306.175 473.236C306.366 473.267 306.618 473.315 306.929 473.382C307.549 473.517 308.357 473.72 309.292 473.99C311.164 474.53 313.491 475.323 315.782 476.334L317.396 472.674ZM323.433 341.223C322.961 343.167 322.961 343.167 322.962 343.167C322.962 343.167 322.963 343.167 322.963 343.167C322.964 343.167 322.966 343.168 322.968 343.168C322.972 343.169 322.978 343.171 322.985 343.173C323 343.176 323.023 343.182 323.052 343.189C323.11 343.202 323.195 343.223 323.307 343.249C323.531 343.302 323.86 343.379 324.286 343.477C325.136 343.672 326.371 343.949 327.916 344.278C331.004 344.936 335.334 345.803 340.306 346.642C350.214 348.314 362.805 349.896 373.204 349.431L373.025 345.435C363.064 345.881 350.814 344.358 340.971 342.698C336.068 341.87 331.795 341.014 328.749 340.365C327.227 340.041 326.012 339.769 325.18 339.578C324.763 339.483 324.443 339.408 324.227 339.357C324.12 339.331 324.038 339.312 323.984 339.299C323.957 339.292 323.937 339.287 323.923 339.284C323.917 339.283 323.912 339.281 323.909 339.281C323.907 339.28 323.906 339.28 323.906 339.28C323.905 339.28 323.905 339.28 323.905 339.28C323.905 339.28 323.905 339.28 323.433 341.223ZM373.204 349.431C384.92 348.908 396.516 346.235 405.148 343.713C409.473 342.449 413.072 341.218 415.594 340.301C416.855 339.842 417.848 339.462 418.528 339.195C418.868 339.062 419.131 338.957 419.309 338.884C419.399 338.848 419.467 338.82 419.514 338.801C419.537 338.791 419.555 338.784 419.568 338.778C419.574 338.776 419.579 338.774 419.583 338.772C419.584 338.771 419.586 338.771 419.587 338.77C419.588 338.77 419.588 338.77 419.588 338.77C419.589 338.77 419.589 338.769 418.819 336.924C418.048 335.078 418.049 335.078 418.049 335.078C418.049 335.078 418.049 335.078 418.048 335.078C418.048 335.078 418.048 335.079 418.047 335.079C418.045 335.08 418.041 335.081 418.036 335.083C418.027 335.087 418.012 335.093 417.992 335.101C417.951 335.118 417.89 335.143 417.807 335.177C417.642 335.244 417.393 335.344 417.067 335.471C416.416 335.727 415.454 336.095 414.227 336.542C411.771 337.435 408.255 338.638 404.027 339.873C395.554 342.349 384.298 344.931 373.025 345.435L373.204 349.431ZM368.88 436.528L365.858 417.345L361.907 417.968L364.929 437.151L368.88 436.528ZM362.098 418.56C366.66 427.57 370.326 430.817 376.326 436.753L379.139 433.91C373.141 427.975 369.907 425.126 365.667 416.753L362.098 418.56ZM379.729 435.212C379.339 428.713 379.343 423.967 380.112 419.529C380.877 415.119 382.418 410.907 385.239 405.533L381.698 403.674C378.746 409.296 377.027 413.91 376.171 418.845C375.32 423.753 375.342 428.873 375.736 435.451L379.729 435.212ZM381.508 404.208C379.076 416.257 379.077 432.973 379.077 435.332H383.077C383.077 432.913 383.088 416.594 385.429 404.999L381.508 404.208ZM313.318 438.867C311.169 436.407 308.875 434.911 305.721 434.338C302.728 433.794 299.085 434.109 294.303 434.864L294.926 438.815C299.699 438.062 302.743 437.862 305.005 438.273C307.106 438.655 308.634 439.585 310.306 441.499L313.318 438.867ZM318.433 473.728C317.755 472.118 316.277 468.068 315.826 463.733C315.365 459.313 316.025 455.218 318.854 452.756L316.229 449.738C311.88 453.522 311.347 459.352 311.847 464.147C312.356 469.027 313.99 473.483 314.746 475.279L318.433 473.728ZM291.698 422.997C290.677 428.103 291.177 433.789 292.769 437.609L296.461 436.07C295.22 433.091 294.731 428.229 295.62 423.781L291.698 422.997ZM294.44 434.847C289.124 435.314 284.626 436.988 281.417 440.018C278.175 443.079 276.458 447.327 276.373 452.496L280.372 452.562C280.443 448.285 281.83 445.129 284.163 442.926C286.528 440.693 290.073 439.246 294.79 438.832L294.44 434.847ZM318.854 452.756C320.918 450.961 322.479 449.722 324.107 448.989C325.646 448.296 327.34 448.017 329.711 448.402L330.352 444.454C327.28 443.955 324.783 444.298 322.465 445.342C320.236 446.346 318.274 447.959 316.229 449.738L318.854 452.756ZM330.949 444.65C327.543 442.894 324.916 439.533 322.935 434.941C320.958 430.357 319.709 424.736 318.948 418.775C317.427 406.847 317.909 393.986 318.111 386.18L314.112 386.076C313.912 393.795 313.412 406.988 314.98 419.281C315.765 425.429 317.078 431.46 319.263 436.525C321.444 441.581 324.578 445.865 329.115 448.205L330.949 444.65ZM329.711 448.402C332.003 448.774 335.021 448.947 337.716 449.682L338.768 445.822C335.84 445.024 332.037 444.727 330.352 444.454L329.711 448.402ZM329.115 448.205C330.444 448.891 332.089 449.26 333.632 449.47C335.209 449.684 336.842 449.752 338.242 449.752V445.752C336.955 445.752 335.513 445.689 334.171 445.506C332.796 445.32 331.679 445.027 330.949 444.65L329.115 448.205ZM360.755 474.654L387.984 473.833L387.863 469.835L360.634 470.656L360.755 474.654ZM419.682 338.728L427.672 334.906L425.946 331.298L417.956 335.12L419.682 338.728ZM424.995 333.944C436.53 358.803 447.748 372.56 463.169 390.306L466.188 387.682C450.857 370.04 439.924 356.616 428.623 332.26L424.995 333.944ZM433.874 409.358C432.408 425.79 430.943 434.824 426.449 450.702L430.297 451.792C434.87 435.635 436.374 426.351 437.858 409.713L433.874 409.358ZM458.875 476.178C451.787 475.951 447.091 475.753 443.585 474.394C440.348 473.138 437.988 470.814 435.968 465.654L432.243 467.112C434.55 473.006 437.584 476.357 442.139 478.123C446.425 479.785 451.918 479.957 458.747 480.175L458.875 476.178ZM464.615 390.993C472.646 391.25 477.694 393.724 481.235 397.818C484.877 402.028 487.126 408.171 489.011 416.202L492.905 415.289C490.996 407.15 488.574 400.188 484.26 395.201C479.844 390.096 473.649 387.28 464.743 386.995L464.615 390.993ZM490.958 415.746C488.977 416.017 488.977 416.017 488.977 416.017C488.977 416.017 488.977 416.017 488.977 416.017C488.977 416.017 488.977 416.018 488.977 416.019C488.977 416.02 488.977 416.022 488.978 416.024C488.978 416.03 488.979 416.037 488.981 416.047C488.984 416.068 488.988 416.098 488.993 416.137C489.004 416.215 489.02 416.33 489.04 416.477C489.08 416.771 489.139 417.194 489.21 417.708C489.353 418.737 489.548 420.134 489.758 421.604C490.173 424.51 490.658 427.8 490.901 429.031L494.826 428.256C494.608 427.157 494.141 423.999 493.718 421.038C493.509 419.575 493.315 418.184 493.172 417.158C493.101 416.645 493.043 416.224 493.002 415.931C492.982 415.785 492.967 415.671 492.956 415.593C492.951 415.554 492.947 415.525 492.944 415.505C492.942 415.495 492.941 415.487 492.941 415.482C492.94 415.48 492.94 415.478 492.94 415.476C492.94 415.476 492.94 415.475 492.94 415.475C492.94 415.475 492.94 415.475 492.94 415.475C492.94 415.475 492.94 415.475 490.958 415.746ZM490.876 428.868L492.278 441.288L496.253 440.84L494.851 428.419L490.876 428.868ZM426.942 452.644C428.826 454.574 430.262 456.107 431.186 458.056C432.079 459.939 432.563 462.377 432.119 466.149L436.092 466.616C436.603 462.267 436.082 459.043 434.8 456.341C433.55 453.706 431.641 451.731 429.804 449.85L426.942 452.644ZM306.1 469.207L299.719 468.709L299.407 472.697L305.788 473.195L306.1 469.207ZM299.719 468.709L293.337 468.21L293.026 472.198L299.407 472.697L299.719 468.709ZM293.624 452.056C292.933 454.892 292.298 459.285 292.697 463.258C293.079 467.056 294.555 471.532 299.086 472.645L300.04 468.76C298.213 468.312 297.033 466.404 296.677 462.858C296.338 459.486 296.884 455.573 297.51 453.002L293.624 452.056ZM359.373 471.154C352.849 476.899 343.154 477.665 335.319 477.263L335.114 481.257C343.094 481.667 354.225 481.017 362.016 474.156L359.373 471.154ZM335.319 477.263C332.986 477.143 330.643 476.914 328.875 476.713C327.993 476.613 327.259 476.521 326.746 476.454C326.49 476.42 326.29 476.393 326.154 476.374C326.086 476.365 326.035 476.358 326.001 476.353C325.984 476.35 325.971 476.349 325.963 476.347C325.959 476.347 325.956 476.346 325.954 476.346C325.953 476.346 325.952 476.346 325.952 476.346C325.952 476.346 325.952 476.346 325.952 476.346C325.952 476.346 325.952 476.346 325.952 476.346C325.952 476.346 325.952 476.346 325.666 478.325C325.38 480.305 325.38 480.305 325.38 480.305C325.38 480.305 325.38 480.305 325.38 480.305C325.381 480.305 325.381 480.305 325.381 480.305C325.382 480.305 325.383 480.305 325.385 480.305C325.387 480.306 325.391 480.306 325.396 480.307C325.407 480.309 325.421 480.311 325.44 480.313C325.479 480.319 325.534 480.327 325.606 480.337C325.75 480.356 325.96 480.385 326.226 480.42C326.758 480.49 327.516 480.585 328.424 480.688C330.237 480.894 332.669 481.132 335.114 481.257L335.319 477.263ZM336.114 477.473C333.721 476.272 331.627 474.323 330.771 471.782C329.943 469.322 330.134 465.884 333.135 461.333L329.795 459.131C326.301 464.43 325.663 469.147 326.981 473.059C328.271 476.891 331.3 479.532 334.32 481.047L336.114 477.473ZM386.737 473.444C389.714 475.637 391.829 476.972 394.284 477.679C396.691 478.372 399.287 478.414 403.051 478.414V474.414C399.172 474.414 397.159 474.344 395.391 473.835C393.67 473.34 392.044 472.385 389.11 470.223L386.737 473.444ZM403.15 478.412C409.382 478.103 417.417 476.99 423.879 475.219C427.094 474.338 430.048 473.26 432.211 471.965C434.206 470.769 436.334 468.889 436.098 466.207L432.113 466.558C432.126 466.701 432.025 467.413 430.155 468.533C428.452 469.553 425.905 470.517 422.822 471.361C416.69 473.042 408.949 474.119 402.952 474.417L403.15 478.412ZM406.67 460.845C408.934 464.065 409.743 468.224 409.078 471.155C408.753 472.592 408.119 473.561 407.334 474.095C406.582 474.606 405.398 474.921 403.518 474.47L402.585 478.359C405.29 479.008 407.693 478.688 409.583 477.403C411.439 476.141 412.501 474.151 412.979 472.039C413.924 467.872 412.774 462.571 409.942 458.544L406.67 460.845ZM459.375 476.258C456.913 475.533 450.631 470.979 452.796 457.626L448.848 456.986C446.427 471.913 453.472 478.69 458.246 480.095L459.375 476.258ZM416.975 337.698C423.885 354.148 428.135 371.054 430.363 382.22L434.285 381.437C432.025 370.11 427.71 352.926 420.663 336.149L416.975 337.698ZM430.363 382.22C431.28 386.816 431.85 390.416 432.121 392.586L436.09 392.09C435.804 389.801 435.217 386.104 434.285 381.437L430.363 382.22ZM464.743 386.995C457.861 386.775 452.105 388.518 447.315 391.751L449.552 395.066C453.611 392.327 458.531 390.798 464.615 390.993L464.743 386.995ZM447.315 391.751C441.486 395.684 437.239 401.717 434.047 408.704L437.685 410.366C440.702 403.764 444.55 398.442 449.552 395.066L447.315 391.751ZM491.707 417.6C493.131 417.025 494.68 416.609 496.673 415.93C498.549 415.291 500.612 414.474 502.509 413.214C504.429 411.939 506.179 410.209 507.422 407.766C508.661 405.333 509.338 402.309 509.297 398.527L505.297 398.57C505.332 401.85 504.744 404.209 503.857 405.952C502.976 407.684 501.74 408.923 500.296 409.883C498.828 410.858 497.148 411.542 495.382 412.144C493.733 412.706 491.743 413.272 490.209 413.891L491.707 417.6ZM509.297 398.548C509.297 395.931 508.681 392.139 507.819 388.058C506.948 383.931 505.789 379.353 504.637 375.096C503.483 370.834 502.33 366.876 501.466 363.984C501.034 362.537 500.674 361.356 500.421 360.536C500.295 360.126 500.195 359.806 500.128 359.588C500.094 359.479 500.067 359.396 500.05 359.339C500.041 359.311 500.034 359.29 500.03 359.275C500.027 359.268 500.026 359.263 500.024 359.259C500.024 359.257 500.023 359.255 500.023 359.254C500.023 359.254 500.023 359.253 500.023 359.253C500.023 359.253 500.023 359.253 498.115 359.854C496.207 360.455 496.207 360.455 496.208 360.455C496.208 360.455 496.208 360.455 496.208 360.456C496.208 360.457 496.208 360.458 496.209 360.459C496.21 360.463 496.212 360.468 496.214 360.475C496.218 360.488 496.224 360.509 496.233 360.536C496.25 360.59 496.275 360.672 496.309 360.779C496.375 360.992 496.473 361.308 496.598 361.713C496.848 362.524 497.205 363.694 497.633 365.129C498.491 367.999 499.634 371.923 500.776 376.141C501.918 380.362 503.056 384.861 503.906 388.885C504.765 392.955 505.297 396.388 505.297 398.548H509.297ZM498.115 359.854C497.635 361.795 497.634 361.795 497.633 361.795C497.633 361.795 497.632 361.794 497.631 361.794C497.63 361.794 497.629 361.794 497.629 361.794C497.628 361.793 497.628 361.794 497.629 361.794C497.632 361.795 497.64 361.797 497.652 361.8C497.676 361.807 497.719 361.818 497.78 361.836C497.9 361.872 498.09 361.931 498.34 362.018C498.84 362.193 499.58 362.481 500.485 362.918C502.296 363.794 504.762 365.267 507.313 367.636C512.375 372.339 517.912 380.71 519.137 395.371L523.123 395.038C521.818 379.41 515.847 370.105 510.035 364.705C507.148 362.023 504.335 360.337 502.226 359.317C501.171 358.807 500.29 358.463 499.66 358.242C499.345 358.132 499.092 358.053 498.912 358C498.821 357.973 498.749 357.953 498.696 357.939C498.669 357.931 498.647 357.926 498.631 357.921C498.622 357.919 498.615 357.917 498.609 357.916C498.606 357.915 498.603 357.914 498.601 357.914C498.6 357.913 498.598 357.913 498.598 357.913C498.596 357.913 498.595 357.912 498.115 359.854ZM519.137 395.371C519.748 402.691 518.645 410.446 514.749 417.959C510.853 425.471 504.103 432.857 493.24 439.347L495.291 442.781C506.689 435.972 514.01 428.072 518.3 419.8C522.589 411.529 523.788 403.003 523.123 395.038L519.137 395.371ZM492.266 441C492.149 444.687 491.44 448.362 490.228 451.877L494.009 453.181C495.345 449.311 496.133 445.239 496.264 441.128L492.266 441ZM490.228 451.877C485.44 465.751 473.03 476.63 458.875 476.178L458.747 480.175C475.123 480.699 488.819 468.223 494.009 453.181L490.228 451.877ZM490.228 451.877C490.091 452.272 489.949 452.665 489.8 453.056L493.537 454.481C493.701 454.051 493.859 453.617 494.009 453.181L490.228 451.877ZM489.8 453.056C484.723 466.373 472.622 476.617 458.875 476.178L458.747 480.175C474.653 480.684 488.032 468.923 493.537 454.481L489.8 453.056ZM493.443 454.692C493.714 454.171 493.918 453.602 494.064 452.994L490.173 452.064C490.094 452.396 489.995 452.651 489.894 452.846L493.443 454.692Z" fill="black"/>
<mask id="path-21-outside-3_18_54" maskUnits="userSpaceOnUse" x="214" y="113" width="306" height="243" fill="black">
<rect fill="white" x="214" y="113" width="306" height="243"/>
<path d="M491.192 270.369C527.813 247.32 507.783 206.913 486.497 177.252C471.325 156.11 443.833 133.216 427.811 140.835C425.728 141.825 423.987 142.808 421.707 144.523C411.052 152.539 417.143 162.193 425.128 174.85C431.998 185.739 440.27 198.85 440.487 215.052C440.884 221.055 440.871 228.351 440.857 236.059C440.823 255.724 440.784 278.069 447.529 288.451C450.163 292.505 454.536 295.634 459.267 296.644C474.775 299.954 491.192 285.644 491.192 270.369Z"/>
<path d="M245.678 179.096C219.236 212.981 214.297 249.817 234.119 264.729C236.652 266.634 240.412 267.689 243.462 268.629C243.462 283.905 257.462 300.351 271.205 300.351C279.679 300.351 286.694 295.077 291.188 287.886C293.981 283.414 296.088 278.549 296.088 272.693V256.098C294.68 242.269 294.742 211.825 296.352 201.223C305.208 142.891 329.789 150.438 330.282 149.102C330.417 148.737 328.764 147.715 324.522 144.523C320.85 141.761 315.333 139.737 310.906 138.991C291.433 135.708 267.222 151.487 245.678 179.096Z"/>
<path fill-rule="evenodd" clip-rule="evenodd" d="M296.352 201.223C294.742 211.825 294.68 242.269 296.088 256.098V272.693C296.088 278.549 293.981 283.414 291.188 287.886C300.423 297.054 311.197 304.361 323.274 309.56C337.245 315.575 352.961 318.771 370.063 318.771C392.05 318.771 412.086 312.747 428.96 302.529C435.676 298.462 441.891 293.731 447.529 288.451C440.784 278.069 440.823 255.724 440.857 236.059C440.871 228.351 440.884 221.055 440.487 215.052C440.27 198.85 431.998 185.739 425.128 174.85C417.143 162.193 411.052 152.539 421.707 144.523C423.987 142.808 425.728 141.825 427.811 140.835C409.795 128.891 394.1 121.013 370.063 121.013C357.856 120.758 327.808 124.118 310.906 138.991C315.333 139.737 320.85 141.761 324.522 144.523C328.764 147.715 330.417 148.737 330.282 149.102C329.789 150.438 305.208 142.891 296.352 201.223ZM318.418 257C329.309 257 338.137 248.332 338.137 237.64C338.137 226.947 329.309 218.279 318.418 218.279C307.528 218.279 298.699 226.947 298.699 237.64C298.699 248.332 307.528 257 318.418 257ZM414.195 257C425.086 257 433.914 248.332 433.914 237.64C433.914 226.947 425.086 218.279 414.195 218.279C403.305 218.279 394.476 226.947 394.476 237.64C394.476 248.332 403.305 257 414.195 257ZM338.518 197.553L332.234 195.66C329.755 194.913 327.129 196.281 326.368 198.715C325.608 201.149 327.001 203.727 329.48 204.474L335.763 206.367C338.242 207.114 340.868 205.746 341.629 203.313C342.39 200.879 340.997 198.3 338.518 197.553ZM403.308 204.474L397.024 206.367C394.545 207.114 391.919 205.746 391.159 203.313C390.398 200.879 391.791 198.3 394.27 197.553L400.554 195.66C403.032 194.913 405.659 196.281 406.419 198.715C407.18 201.149 405.787 203.727 403.308 204.474ZM382.255 251.101C382.255 257.466 375.739 262.626 367.701 262.626L367.462 268.963L367.223 275.3C368.019 278.88 375.292 280.104 381.606 277.87C382.916 280.011 383.664 282.485 383.664 285.12C383.664 293.267 376.517 299.871 367.701 299.871C358.885 299.871 351.738 293.267 351.738 285.12L351.171 279.077C351.743 279.261 352.331 279.407 352.928 279.52C359.749 280.808 367.753 277.686 367.223 275.3L367.462 268.963L367.701 262.626C359.663 262.626 353.146 257.466 353.146 251.101C353.146 244.737 359.663 239.577 367.701 239.577C375.739 239.577 382.255 244.737 382.255 251.101Z"/>
<path d="M338.137 237.64C338.137 248.332 329.309 257 318.418 257C307.528 257 298.699 248.332 298.699 237.64C298.699 226.947 307.528 218.279 318.418 218.279C329.309 218.279 338.137 226.947 338.137 237.64Z"/>
<path d="M433.914 237.64C433.914 248.332 425.086 257 414.195 257C403.305 257 394.476 248.332 394.476 237.64C394.476 226.947 403.305 218.279 414.195 218.279C425.086 218.279 433.914 226.947 433.914 237.64Z"/>
<path d="M367.701 262.626C375.739 262.626 382.255 257.466 382.255 251.101C382.255 244.737 375.739 239.577 367.701 239.577C359.663 239.577 353.146 244.737 353.146 251.101C353.146 257.466 359.663 262.626 367.701 262.626Z"/>
<path d="M332.234 195.66L338.518 197.553C340.997 198.3 342.39 200.879 341.629 203.313C340.868 205.746 338.242 207.114 335.763 206.367L329.48 204.474C327.001 203.727 325.608 201.149 326.368 198.715C327.129 196.281 329.755 194.913 332.234 195.66Z"/>
<path d="M397.024 206.367L403.308 204.474C405.787 203.727 407.18 201.149 406.419 198.715C405.659 196.281 403.032 194.913 400.554 195.66L394.27 197.553C391.791 198.3 390.398 200.879 391.159 203.313C391.919 205.746 394.545 207.114 397.024 206.367Z"/>
<path d="M367.701 299.871C376.517 299.871 383.664 293.267 383.664 285.12C383.664 282.485 382.916 280.011 381.606 277.87C375.292 280.104 368.019 278.88 367.223 275.3C367.753 277.686 359.749 280.808 352.928 279.52C352.331 279.407 351.743 279.261 351.171 279.077L351.738 285.12C351.738 293.267 358.885 299.871 367.701 299.871Z"/>
<path d="M323.161 334.535C361.874 362.244 427.105 337.73 426.823 329.281C426.542 320.831 426.937 312.561 426.937 312.561C413.008 322.433 374.371 336.16 323.161 319.726V334.535Z"/>
</mask>
<path d="M491.192 270.369C527.813 247.32 507.783 206.913 486.497 177.252C471.325 156.11 443.833 133.216 427.811 140.835C425.728 141.825 423.987 142.808 421.707 144.523C411.052 152.539 417.143 162.193 425.128 174.85C431.998 185.739 440.27 198.85 440.487 215.052C440.884 221.055 440.871 228.351 440.857 236.059C440.823 255.724 440.784 278.069 447.529 288.451C450.163 292.505 454.536 295.634 459.267 296.644C474.775 299.954 491.192 285.644 491.192 270.369Z" fill="#E3B270"/>
<path d="M245.678 179.096C219.236 212.981 214.297 249.817 234.119 264.729C236.652 266.634 240.412 267.689 243.462 268.629C243.462 283.905 257.462 300.351 271.205 300.351C279.679 300.351 286.694 295.077 291.188 287.886C293.981 283.414 296.088 278.549 296.088 272.693V256.098C294.68 242.269 294.742 211.825 296.352 201.223C305.208 142.891 329.789 150.438 330.282 149.102C330.417 148.737 328.764 147.715 324.522 144.523C320.85 141.761 315.333 139.737 310.906 138.991C291.433 135.708 267.222 151.487 245.678 179.096Z" fill="#E3B270"/>
<path fill-rule="evenodd" clip-rule="evenodd" d="M296.352 201.223C294.742 211.825 294.68 242.269 296.088 256.098V272.693C296.088 278.549 293.981 283.414 291.188 287.886C300.423 297.054 311.197 304.361 323.274 309.56C337.245 315.575 352.961 318.771 370.063 318.771C392.05 318.771 412.086 312.747 428.96 302.529C435.676 298.462 441.891 293.731 447.529 288.451C440.784 278.069 440.823 255.724 440.857 236.059C440.871 228.351 440.884 221.055 440.487 215.052C440.27 198.85 431.998 185.739 425.128 174.85C417.143 162.193 411.052 152.539 421.707 144.523C423.987 142.808 425.728 141.825 427.811 140.835C409.795 128.891 394.1 121.013 370.063 121.013C357.856 120.758 327.808 124.118 310.906 138.991C315.333 139.737 320.85 141.761 324.522 144.523C328.764 147.715 330.417 148.737 330.282 149.102C329.789 150.438 305.208 142.891 296.352 201.223ZM318.418 257C329.309 257 338.137 248.332 338.137 237.64C338.137 226.947 329.309 218.279 318.418 218.279C307.528 218.279 298.699 226.947 298.699 237.64C298.699 248.332 307.528 257 318.418 257ZM414.195 257C425.086 257 433.914 248.332 433.914 237.64C433.914 226.947 425.086 218.279 414.195 218.279C403.305 218.279 394.476 226.947 394.476 237.64C394.476 248.332 403.305 257 414.195 257ZM338.518 197.553L332.234 195.66C329.755 194.913 327.129 196.281 326.368 198.715C325.608 201.149 327.001 203.727 329.48 204.474L335.763 206.367C338.242 207.114 340.868 205.746 341.629 203.313C342.39 200.879 340.997 198.3 338.518 197.553ZM403.308 204.474L397.024 206.367C394.545 207.114 391.919 205.746 391.159 203.313C390.398 200.879 391.791 198.3 394.27 197.553L400.554 195.66C403.032 194.913 405.659 196.281 406.419 198.715C407.18 201.149 405.787 203.727 403.308 204.474ZM382.255 251.101C382.255 257.466 375.739 262.626 367.701 262.626L367.462 268.963L367.223 275.3C368.019 278.88 375.292 280.104 381.606 277.87C382.916 280.011 383.664 282.485 383.664 285.12C383.664 293.267 376.517 299.871 367.701 299.871C358.885 299.871 351.738 293.267 351.738 285.12L351.171 279.077C351.743 279.261 352.331 279.407 352.928 279.52C359.749 280.808 367.753 277.686 367.223 275.3L367.462 268.963L367.701 262.626C359.663 262.626 353.146 257.466 353.146 251.101C353.146 244.737 359.663 239.577 367.701 239.577C375.739 239.577 382.255 244.737 382.255 251.101Z" fill="white"/>
<path d="M338.137 237.64C338.137 248.332 329.309 257 318.418 257C307.528 257 298.699 248.332 298.699 237.64C298.699 226.947 307.528 218.279 318.418 218.279C329.309 218.279 338.137 226.947 338.137 237.64Z" fill="black"/>
<path d="M433.914 237.64C433.914 248.332 425.086 257 414.195 257C403.305 257 394.476 248.332 394.476 237.64C394.476 226.947 403.305 218.279 414.195 218.279C425.086 218.279 433.914 226.947 433.914 237.64Z" fill="black"/>
<path d="M367.701 262.626C375.739 262.626 382.255 257.466 382.255 251.101C382.255 244.737 375.739 239.577 367.701 239.577C359.663 239.577 353.146 244.737 353.146 251.101C353.146 257.466 359.663 262.626 367.701 262.626Z" fill="black"/>
<path d="M332.234 195.66L338.518 197.553C340.997 198.3 342.39 200.879 341.629 203.313C340.868 205.746 338.242 207.114 335.763 206.367L329.48 204.474C327.001 203.727 325.608 201.149 326.368 198.715C327.129 196.281 329.755 194.913 332.234 195.66Z" fill="black"/>
<path d="M397.024 206.367L403.308 204.474C405.787 203.727 407.18 201.149 406.419 198.715C405.659 196.281 403.032 194.913 400.554 195.66L394.27 197.553C391.791 198.3 390.398 200.879 391.159 203.313C391.919 205.746 394.545 207.114 397.024 206.367Z" fill="black"/>
<path d="M367.701 299.871C376.517 299.871 383.664 293.267 383.664 285.12C383.664 282.485 382.916 280.011 381.606 277.87C375.292 280.104 368.019 278.88 367.223 275.3C367.753 277.686 359.749 280.808 352.928 279.52C352.331 279.407 351.743 279.261 351.171 279.077L351.738 285.12C351.738 293.267 358.885 299.871 367.701 299.871Z" fill="#F98F89"/>
<path d="M323.161 334.535C361.874 362.244 427.105 337.73 426.823 329.281C426.542 320.831 426.937 312.561 426.937 312.561C413.008 322.433 374.371 336.16 323.161 319.726V334.535Z" fill="#3B6278"/>
<path d="M296.352 201.223L292.397 200.622L292.397 200.622L296.352 201.223ZM324.522 144.523L322.117 147.719L322.117 147.719L324.522 144.523ZM421.707 144.523L419.302 141.326L419.302 141.326L421.707 144.523ZM440.487 215.052L436.487 215.105C436.488 215.176 436.491 215.246 436.496 215.316L440.487 215.052ZM329.48 204.474L328.326 208.304L328.326 208.304L329.48 204.474ZM335.763 206.367L336.917 202.537L336.917 202.537L335.763 206.367ZM338.518 197.553L339.672 193.723L339.672 193.723L338.518 197.553ZM332.234 195.66L331.08 199.49L331.08 199.49L332.234 195.66ZM394.27 197.553L393.116 193.723L393.116 193.723L394.27 197.553ZM400.554 195.66L401.707 199.49L401.707 199.49L400.554 195.66ZM403.308 204.474L404.462 208.304L404.462 208.304L403.308 204.474ZM397.024 206.367L395.87 202.537L395.87 202.537L397.024 206.367ZM351.738 285.12H355.738C355.738 284.995 355.732 284.87 355.72 284.746L351.738 285.12ZM296.088 256.098H300.088C300.088 255.962 300.081 255.827 300.068 255.692L296.088 256.098ZM367.223 275.3L363.226 275.149C363.213 275.491 363.244 275.833 363.318 276.167L367.223 275.3ZM381.606 277.87L380.271 274.099L380.271 274.099L381.606 277.87ZM352.928 279.52L353.67 275.59L353.67 275.59L352.928 279.52ZM330.282 149.102L326.529 147.717L326.529 147.717L330.282 149.102ZM425.128 174.85L428.511 172.716L428.511 172.716L425.128 174.85ZM440.857 236.059L444.857 236.066L444.857 236.066L440.857 236.059ZM367.462 268.963L371.459 269.113L371.459 269.113L367.462 268.963ZM334.137 237.64C334.137 246.054 327.169 253 318.418 253V261C331.448 261 342.137 250.61 342.137 237.64H334.137ZM318.418 253C309.668 253 302.699 246.054 302.699 237.64H294.699C294.699 250.61 305.388 261 318.418 261V253ZM302.699 237.64C302.699 229.225 309.668 222.279 318.418 222.279V214.279C305.388 214.279 294.699 224.669 294.699 237.64H302.699ZM318.418 222.279C327.169 222.279 334.137 229.225 334.137 237.64H342.137C342.137 224.669 331.448 214.279 318.418 214.279V222.279ZM429.914 237.64C429.914 246.054 422.946 253 414.195 253V261C427.225 261 437.914 250.61 437.914 237.64H429.914ZM414.195 253C405.445 253 398.476 246.054 398.476 237.64H390.476C390.476 250.61 401.165 261 414.195 261V253ZM398.476 237.64C398.476 229.225 405.445 222.279 414.195 222.279V214.279C401.165 214.279 390.476 224.669 390.476 237.64H398.476ZM414.195 222.279C422.946 222.279 429.914 229.225 429.914 237.64H437.914C437.914 224.669 427.225 214.279 414.195 214.279V222.279ZM331.08 199.49L337.364 201.383L339.672 193.723L333.388 191.83L331.08 199.49ZM336.917 202.537L330.633 200.644L328.326 208.304L334.609 210.197L336.917 202.537ZM330.633 200.644C330.229 200.522 330.107 200.163 330.186 199.908L322.551 197.522C321.109 202.135 323.772 206.932 328.326 208.304L330.633 200.644ZM337.811 202.119C337.721 202.407 337.35 202.668 336.917 202.537L334.609 210.197C339.134 211.56 344.015 209.086 345.447 204.506L337.811 202.119ZM337.364 201.383C337.768 201.505 337.891 201.865 337.811 202.119L345.447 204.506C346.889 199.893 344.225 195.095 339.672 193.723L337.364 201.383ZM333.388 191.83C328.863 190.467 323.982 192.941 322.551 197.522L330.186 199.908C330.276 199.621 330.647 199.36 331.08 199.49L333.388 191.83ZM398.178 210.197L404.462 208.304L402.154 200.644L395.87 202.537L398.178 210.197ZM399.4 191.83L393.116 193.723L395.424 201.383L401.707 199.49L399.4 191.83ZM393.116 193.723C388.562 195.095 385.899 199.893 387.341 204.506L394.977 202.119C394.897 201.865 395.02 201.505 395.424 201.383L393.116 193.723ZM410.237 197.522C408.806 192.941 403.924 190.467 399.4 191.83L401.707 199.49C402.141 199.36 402.512 199.621 402.601 199.908L410.237 197.522ZM404.462 208.304C409.016 206.932 411.679 202.135 410.237 197.522L402.601 199.908C402.681 200.163 402.558 200.522 402.154 200.644L404.462 208.304ZM395.87 202.537C395.437 202.668 395.066 202.407 394.977 202.119L387.341 204.506C388.772 209.086 393.654 211.56 398.178 210.197L395.87 202.537ZM378.255 251.101C378.255 254.437 374.451 258.626 367.701 258.626V266.626C377.027 266.626 386.255 260.495 386.255 251.101H378.255ZM367.701 258.626C360.951 258.626 357.146 254.437 357.146 251.101H349.146C349.146 260.495 358.374 266.626 367.701 266.626V258.626ZM357.146 251.101C357.146 247.766 360.951 243.577 367.701 243.577V235.577C358.374 235.577 349.146 241.707 349.146 251.101H357.146ZM367.701 243.577C374.451 243.577 378.255 247.766 378.255 251.101H386.255C386.255 241.707 377.027 235.577 367.701 235.577V243.577ZM379.664 285.12C379.664 290.766 374.611 295.871 367.701 295.871V303.871C378.423 303.871 387.664 295.767 387.664 285.12H379.664ZM367.701 295.871C360.791 295.871 355.738 290.766 355.738 285.12H347.738C347.738 295.767 356.979 303.871 367.701 303.871V295.871ZM292.397 200.622C291.543 206.247 291.129 216.776 291.088 227.435C291.047 238.147 291.383 249.38 292.109 256.503L300.068 255.692C299.385 248.987 299.048 238.083 299.088 227.465C299.129 216.794 299.551 206.801 300.307 201.823L292.397 200.622ZM300.088 272.693V256.098H292.088V272.693H300.088ZM292.088 272.693C292.088 277.515 290.375 281.637 287.795 285.766L294.58 290.005C297.587 285.192 300.088 279.583 300.088 272.693H292.088ZM426.093 137.223C423.806 138.31 421.827 139.427 419.302 141.326L424.112 147.719C426.146 146.189 427.651 145.34 429.528 144.447L426.093 137.223ZM310.241 142.935C314.208 143.604 319.08 145.435 322.117 147.719L326.926 141.326C322.62 138.087 316.458 135.87 311.571 135.047L310.241 142.935ZM352.393 275.269C350.763 274.745 349.562 273.882 348.79 272.633C348.008 271.367 347.389 269.251 347.79 265.719L339.841 264.816C339.296 269.616 340.019 273.656 341.984 276.837C343.959 280.035 346.908 281.91 349.948 282.886L352.393 275.269ZM355.72 284.746L355.153 278.703L347.188 279.451L347.755 285.494L355.72 284.746ZM380.271 274.099C377.726 275 375.026 275.174 373.036 274.825C372.039 274.651 371.415 274.379 371.107 274.178C370.817 273.988 371.039 274.03 371.128 274.432L363.318 276.167C363.805 278.359 365.234 279.896 366.73 280.874C368.206 281.839 369.944 282.405 371.655 282.705C375.078 283.305 379.172 282.975 382.94 281.641L380.271 274.099ZM363.318 276.167C362.903 274.299 364.312 273.527 363.718 273.989C363.422 274.218 362.722 274.612 361.581 274.988C359.319 275.733 356.304 276.087 353.67 275.59L352.186 283.451C356.373 284.241 360.771 283.678 364.083 282.587C365.73 282.045 367.357 281.292 368.627 280.305C369.597 279.551 371.808 277.493 371.128 274.432L363.318 276.167ZM353.67 275.59C353.223 275.505 352.796 275.398 352.393 275.269L349.948 282.886C350.69 283.124 351.439 283.31 352.186 283.451L353.67 275.59ZM382.94 281.641C389.057 279.476 395.109 274.272 395.109 265.268H387.109C387.109 269.864 384.274 272.683 380.271 274.099L382.94 281.641ZM378.194 279.958C379.138 281.501 379.664 283.256 379.664 285.12H387.664C387.664 281.713 386.694 278.522 385.018 275.782L378.194 279.958ZM334.035 150.486C334.668 148.769 333.97 147.371 333.695 146.903C333.383 146.373 333.012 145.997 332.826 145.815C332.422 145.422 331.907 145.023 331.455 144.681C330.963 144.31 330.33 143.847 329.598 143.31C328.854 142.763 327.969 142.111 326.926 141.326L322.117 147.719C323.196 148.531 324.108 149.204 324.863 149.758C325.63 150.321 326.197 150.735 326.632 151.064C326.846 151.226 327.002 151.347 327.116 151.44C327.238 151.538 327.266 151.568 327.245 151.547C327.232 151.535 327.183 151.486 327.115 151.406C327.052 151.332 326.93 151.18 326.8 150.959C326.605 150.629 325.93 149.343 326.529 147.717L334.035 150.486ZM419.302 141.326C416.181 143.675 413.988 146.373 412.86 149.509C411.729 152.65 411.811 155.826 412.536 158.872C413.914 164.664 417.891 170.876 421.745 176.985L428.511 172.716C424.38 166.168 421.319 161.224 420.319 157.02C419.854 155.069 419.912 153.537 420.387 152.218C420.864 150.893 421.906 149.379 424.112 147.719L419.302 141.326ZM421.745 176.985C428.69 187.992 436.287 200.191 436.487 215.105L444.487 214.998C444.252 197.51 435.306 183.487 428.511 172.716L421.745 176.985ZM436.496 215.316C436.881 221.155 436.871 228.301 436.857 236.052L444.857 236.066C444.871 228.402 444.886 220.955 444.478 214.788L436.496 215.316ZM436.857 236.052C436.84 245.842 436.818 256.534 437.666 266.09C438.5 275.483 440.221 284.545 444.175 290.631L450.884 286.272C448.092 281.975 446.46 274.674 445.635 265.383C444.825 256.254 444.84 245.941 444.857 236.066L436.857 236.052ZM300.307 201.823C304.668 173.094 312.766 161.627 318.877 156.971C321.912 154.659 324.654 153.868 326.635 153.559C327.653 153.4 328.49 153.364 329.239 153.328C329.537 153.313 330.066 153.291 330.529 153.219C330.752 153.185 331.234 153.101 331.766 152.87C332.25 152.658 333.47 152.018 334.035 150.486L326.529 147.717C327.064 146.268 328.206 145.694 328.568 145.537C328.977 145.358 329.292 145.315 329.305 145.313C329.35 145.307 329.292 145.316 328.854 145.337C328.129 145.372 326.895 145.421 325.402 145.654C322.358 146.129 318.308 147.348 314.029 150.607C305.513 157.095 296.892 171.02 292.397 200.622L300.307 201.823ZM363.704 262.475L363.465 268.812L371.459 269.113L371.698 262.776L363.704 262.475ZM363.465 268.812L363.226 275.149L371.22 275.45L371.459 269.113L363.465 268.812ZM370.063 121.013L369.895 129.011C369.951 129.013 370.007 129.013 370.063 129.013V121.013ZM234.119 264.729L229.31 271.122L229.31 271.122L234.119 264.729ZM245.678 179.096L239.371 174.174L239.371 174.174L245.678 179.096ZM486.497 177.252L479.998 181.916L486.497 177.252ZM491.192 270.369L486.931 263.598C484.604 265.063 483.192 267.619 483.192 270.369H491.192ZM459.267 296.644L460.937 288.82L459.267 296.644ZM243.462 268.629H251.462C251.462 265.119 249.174 262.019 245.82 260.985L243.462 268.629ZM291.188 287.886L296.824 282.208L289.713 275.149L284.403 283.647L291.188 287.886ZM427.811 140.835L423.39 147.503C425.73 149.054 428.711 149.265 431.246 148.06L427.811 140.835ZM447.529 288.451L454.238 284.093L449.033 276.082L442.061 282.612L447.529 288.451ZM310.906 138.991L309.576 146.88C311.952 147.28 314.382 146.589 316.191 144.997L310.906 138.991ZM323.274 309.56L326.437 302.212L323.274 309.56ZM323.161 334.535H315.161C315.161 337.116 316.406 339.539 318.505 341.041L323.161 334.535ZM428.96 302.529L424.817 295.686L428.96 302.529ZM426.937 312.561L434.927 312.942C435.073 309.886 433.463 307.014 430.779 305.544C428.095 304.074 424.807 304.264 422.31 306.034L426.937 312.561ZM323.161 319.726L325.605 312.109C323.172 311.328 320.512 311.757 318.447 313.263C316.382 314.769 315.161 317.171 315.161 319.726H323.161ZM238.928 258.336C232.161 253.245 228.639 243.741 230.478 230.095C232.307 216.515 239.411 200.13 251.985 184.018L239.371 174.174C225.502 191.946 216.916 210.922 214.621 227.959C212.335 244.931 216.255 261.301 229.31 271.122L238.928 258.336ZM495.454 277.139C505.839 270.603 512.699 262.493 516.349 253.188C519.969 243.959 520.167 234.236 518.426 224.834C514.998 206.322 503.775 187.607 492.997 172.588L479.998 181.916C490.506 196.559 499.94 212.877 502.694 227.747C504.043 235.034 503.712 241.588 501.454 247.345C499.225 253.026 494.856 258.61 486.931 263.598L495.454 277.139ZM483.192 270.369C483.192 275.172 480.528 280.465 475.901 284.349C471.298 288.214 465.759 289.85 460.937 288.82L457.597 304.468C468.282 306.749 478.706 302.885 486.189 296.603C493.648 290.341 499.192 280.841 499.192 270.369H483.192ZM271.205 292.351C267.445 292.351 262.533 289.95 258.226 284.979C253.992 280.094 251.462 273.959 251.462 268.629H235.462C235.462 278.575 239.932 288.301 246.134 295.458C252.263 302.529 261.222 308.351 271.205 308.351V292.351ZM284.403 283.647C280.853 289.328 276.066 292.351 271.205 292.351V308.351C283.291 308.351 292.535 300.826 297.972 292.125L284.403 283.647ZM245.82 260.985C242.15 259.853 240.07 259.195 238.928 258.336L229.31 271.122C233.233 274.074 238.674 275.525 241.104 276.274L245.82 260.985ZM492.997 172.588C484.962 161.392 473.659 149.687 462.008 141.668C456.185 137.66 449.955 134.351 443.744 132.629C437.531 130.906 430.686 130.609 424.375 133.61L431.246 148.06C432.946 147.251 435.546 146.959 439.468 148.047C443.393 149.135 447.988 151.442 452.937 154.848C462.831 161.657 472.86 171.97 479.998 181.916L492.997 172.588ZM370.063 129.013C391.857 129.013 405.983 135.962 423.39 147.503L432.231 134.167C413.606 121.819 396.344 113.013 370.063 113.013V129.013ZM460.937 288.82C458.391 288.277 455.782 286.469 454.238 284.093L440.821 292.81C444.544 298.541 450.681 302.992 457.597 304.468L460.937 288.82ZM251.985 184.018C262.362 170.719 273.136 160.599 283.308 154.244C293.557 147.84 302.474 145.683 309.576 146.88L312.236 131.102C299.865 129.017 286.941 133.107 274.83 140.675C262.642 148.29 250.538 159.864 239.371 174.174L251.985 184.018ZM370.23 113.015C363.452 112.873 352.206 113.721 340.384 116.548C328.664 119.352 315.478 124.312 305.621 132.985L316.191 144.997C323.237 138.797 333.526 134.64 344.106 132.109C354.585 129.603 364.467 128.898 369.895 129.011L370.23 113.015ZM370.063 310.771C353.968 310.771 339.337 307.766 326.437 302.212L320.111 316.908C335.153 323.384 351.955 326.771 370.063 326.771V310.771ZM326.437 302.212C315.286 297.411 305.351 290.673 296.824 282.208L285.551 293.563C295.496 303.436 307.107 311.31 320.111 316.908L326.437 302.212ZM318.505 341.041C340.417 356.724 369.007 357.223 391.004 353.346C402.152 351.381 412.15 348.205 419.515 344.839C423.159 343.173 426.444 341.332 428.949 339.384C430.189 338.419 431.5 337.228 432.56 335.798C433.544 334.469 434.922 332.106 434.819 329.014L418.828 329.547C418.76 327.511 419.661 326.33 419.702 326.275C419.818 326.118 419.719 326.293 419.127 326.753C417.967 327.655 415.899 328.899 412.863 330.287C406.867 333.027 398.19 335.832 388.226 337.589C367.999 341.154 344.618 340.055 327.817 328.03L318.505 341.041ZM442.061 282.612C436.824 287.517 431.051 291.91 424.817 295.686L433.104 309.372C440.301 305.014 446.959 299.946 452.998 294.291L442.061 282.612ZM424.817 295.686C409.166 305.163 390.559 310.771 370.063 310.771V326.771C393.54 326.771 415.006 320.331 433.104 309.372L424.817 295.686ZM434.819 329.014C434.684 324.982 434.711 320.956 434.773 317.915C434.803 316.401 434.843 315.145 434.874 314.273C434.89 313.837 434.903 313.497 434.913 313.27C434.918 313.157 434.922 313.071 434.924 313.016C434.925 312.988 434.926 312.968 434.927 312.956C434.927 312.95 434.927 312.945 434.927 312.943C434.927 312.942 434.928 312.941 434.928 312.941C434.928 312.941 434.928 312.941 434.928 312.941C434.928 312.942 434.927 312.942 434.927 312.942C434.927 312.942 434.927 312.942 426.937 312.561C418.946 312.179 418.946 312.18 418.946 312.18C418.946 312.18 418.946 312.18 418.946 312.181C418.946 312.182 418.946 312.182 418.945 312.183C418.945 312.185 418.945 312.187 418.945 312.19C418.945 312.196 418.945 312.204 418.944 312.214C418.943 312.233 418.942 312.26 418.94 312.295C418.937 312.365 418.933 312.466 418.927 312.595C418.916 312.853 418.901 313.226 418.884 313.698C418.851 314.64 418.809 315.98 418.776 317.59C418.711 320.796 418.68 325.13 418.828 329.547L434.819 329.014ZM315.161 319.726V334.535H331.161V319.726H315.161ZM422.31 306.034C410.507 314.4 374.503 327.8 325.605 312.109L320.716 327.344C374.239 344.519 415.509 330.467 431.563 319.088L422.31 306.034Z" fill="black" mask="url(#path-21-outside-3_18_54)"/>
<path d="M350.844 277.898L350.203 279.792L350.203 279.792L350.844 277.898ZM345.476 264.314C345.601 263.216 344.812 262.226 343.714 262.101C342.617 261.976 341.626 262.765 341.501 263.862L345.476 264.314ZM381.279 276.69L382.077 278.524L381.279 276.69ZM367.135 274.344H365.135C365.135 274.49 365.151 274.636 365.183 274.778L367.135 274.344ZM352.602 278.341L352.217 280.303L352.217 280.303L352.602 278.341ZM391.198 264.088C391.198 262.983 390.302 262.088 389.198 262.088C388.093 262.088 387.198 262.983 387.198 264.088H391.198ZM351.485 276.003C348.843 275.109 347.278 273.972 346.379 272.393C345.449 270.761 345.023 268.298 345.476 264.314L341.501 263.862C341.007 268.21 341.365 271.673 342.903 274.373C344.471 277.125 347.057 278.727 350.203 279.792L351.485 276.003ZM380.481 274.856C378.312 275.8 375.363 276.091 372.876 275.719C371.641 275.534 370.644 275.204 369.968 274.808C369.284 274.409 369.123 274.069 369.088 273.91L365.183 274.778C365.545 276.409 366.709 277.537 367.95 278.262C369.198 278.991 370.725 279.442 372.284 279.675C375.387 280.14 379.112 279.814 382.077 278.524L380.481 274.856ZM365.183 274.778C365.09 274.362 365.267 274.093 365.271 274.087C365.271 274.087 365.243 274.126 365.162 274.197C365.082 274.268 364.968 274.355 364.812 274.456C364.159 274.88 363.078 275.344 361.689 275.737C358.901 276.525 355.469 276.864 352.986 276.378L352.217 280.303C355.511 280.948 359.611 280.482 362.778 279.586C364.367 279.136 365.869 278.538 366.989 277.812C367.543 277.453 368.112 276.993 368.529 276.408C368.962 275.8 369.313 274.923 369.088 273.91L365.183 274.778ZM352.986 276.378C352.314 276.246 352.027 276.186 351.485 276.003L350.203 279.792C351.003 280.063 351.5 280.163 352.217 280.303L352.986 276.378ZM382.077 278.524C384.967 277.267 387.317 275.605 388.912 273.164C390.503 270.727 391.198 267.735 391.198 264.088H387.198C387.198 267.241 386.598 269.392 385.563 270.976C384.531 272.556 382.921 273.795 380.481 274.856L382.077 278.524ZM369.135 274.344V262.401H365.135V274.344H369.135Z" fill="black"/>
<circle cx="324.229" cy="229.917" r="5.73249" fill="#D9D9D9"/>
<ellipse cx="361.633" cy="247.225" rx="4.29937" ry="2.86625" transform="rotate(-15.8601 361.633 247.225)" fill="#D9D9D9"/>
<circle cx="420.726" cy="229.917" r="5.73249" fill="#D9D9D9"/>
<circle cx="372.956" cy="375.14" r="23.0191" fill="#4BC5D8" stroke="black" stroke-width="4"/>
<path d="M365.316 387.249C365.514 389.205 367.205 390.636 369.094 390.445C369.524 390.401 369.927 390.278 370.292 390.089C372.344 389.548 373.423 389.493 375.206 389.88C375.705 390.11 376.262 390.214 376.837 390.156C378.659 389.972 379.975 388.237 379.777 386.281C379.681 385.334 379.248 384.509 378.621 383.93C378.468 383.856 378.281 383.71 378.076 383.52C377.597 383.077 377.022 382.392 376.563 381.806C376.357 381.543 376.175 381.299 376.036 381.107C375.045 380.006 373.6 379.379 372.063 379.534C370.525 379.69 369.235 380.593 368.485 381.87C367.942 382.754 367.598 383.221 367.064 383.78C365.897 384.444 365.168 385.786 365.316 387.249Z" fill="#FCFDFD"/>
<ellipse cx="382.169" cy="378.195" rx="3.48868" ry="2.72508" transform="rotate(133.035 382.169 378.195)" fill="#FCFDFD"/>
<ellipse cx="377.074" cy="371.586" rx="3.48868" ry="2.72508" transform="rotate(106.227 377.074 371.586)" fill="#FCFDFD"/>
<ellipse cx="368.899" cy="370.305" rx="3.61226" ry="2.71438" transform="rotate(74.9568 368.899 370.305)" fill="#FCFDFD"/>
<ellipse cx="363.823" cy="376.702" rx="3.58523" ry="2.65195" transform="rotate(49.2017 363.823 376.702)" fill="#FCFDFD"/>
<rect x="368.089" y="337.79" width="8.77708" height="25.9746" rx="4.38854" fill="#F1B16D" stroke="black" stroke-width="4"/>
</svg>
